<svg xmlns="http://www.w3.org/2000/svg" xmlns:xlink="http://www.w3.org/1999/xlink" fill="#000000" id="Layer_1" viewBox="0 0 496 496" xml:space="preserve"><g>	<g>		<g>			<path d="M456,432V184c0-13.232-10.768-24-24-24h-40V0h-40L191.208,32H160c-48.52,0-88,39.48-88,88    c0,14.408,3.552,27.984,9.712,40H64c-13.232,0-24,10.768-24,24v248H0v40c0,13.232,10.768,24,24,24h448c13.232,0,24-10.768,24-24    v-40H456z M392,240v-16v-16h16v192H88V208h32v124.224C120,347.536,132.464,360,147.776,360h40.456    C203.536,360,216,347.536,216,332.224c0-10.584-5.88-20.112-15.36-24.848l-0.64-0.32V209.76L271.208,224H232v96h160V240z     M184,240v16h-32v16h32v16h-32v16h32v12.944l9.496,4.744c4.008,2.008,6.504,6.048,6.504,10.536    c0,6.496-5.28,11.776-11.776,11.776h-40.456C141.28,344,136,338.72,136,332.224V204.592c7.64,2.168,15.672,3.408,24,3.408h24v16    h-32v16H184z M360,16h16v208h-16V16z M376,240v64H248v-64H376z M160,48h32l152-30.248V222.24l-150.432-30.08L160,192    c-39.704,0-72-32.296-72-72S120.296,48,160,48z M56,184c0-4.416,3.584-8,8-8h28.168c5.04,6.088,10.912,11.448,17.392,16H72v224    h352V192h-32v-16h40c4.416,0,8,3.584,8,8v248H56V184z M480,472c0,4.416-3.584,8-8,8H24c-4.416,0-8-3.584-8-8v-24h184v16h16v-16    h64v16h16v-16h184V472z"></path>			<rect x="232" y="368" width="160" height="16"></rect>			<rect x="232" y="336" width="160" height="16"></rect>		</g>	</g></g></svg>