<svg xmlns="http://www.w3.org/2000/svg" xmlns:xlink="http://www.w3.org/1999/xlink" id="Capa_1" viewBox="0 0 411.842 411.842" xml:space="preserve"><g>	<path style="fill:#010002;" d="M44.703,411.842h322.436c4.487,0,8.129-3.642,8.129-8.129V8.129c0-4.487-3.642-8.129-8.129-8.129  H44.703c-4.487,0-8.129,3.642-8.129,8.129v395.593C36.575,408.209,40.216,411.842,44.703,411.842z M52.832,16.257h306.179v379.336  H52.832V16.257z"></path>	<path style="fill:#010002;" d="M318.701,51.478H93.133c-4.487,0-8.129,3.642-8.129,8.129v103.639c0,4.487,3.642,8.129,8.129,8.129  h92.983c4.487,0,8.129-3.642,8.129-8.129s-3.642-8.129-8.129-8.129h-84.854V67.735h209.311v87.382h-79.758  c-4.487,0-8.129,3.642-8.129,8.129s3.642,8.129,8.129,8.129h87.886c4.487,0,8.129-3.642,8.129-8.129V59.607  C326.83,55.12,323.196,51.478,318.701,51.478z"></path>	<path style="fill:#010002;" d="M91.865,275.014h106.688c4.487,0,8.129-3.642,8.129-8.129v-69.093c0-4.487-3.642-8.129-8.129-8.129  H91.865c-4.487,0-8.129,3.642-8.129,8.129v69.093C83.737,271.372,87.378,275.014,91.865,275.014z M99.994,205.921h90.43v52.836  h-90.43V205.921z"></path>	<path style="fill:#010002;" d="M198.975,290.369H92.288c-4.487,0-8.129,3.642-8.129,8.129v69.093c0,4.487,3.642,8.129,8.129,8.129  h106.688c4.487,0,8.129-3.642,8.129-8.129v-69.093C207.104,294.002,203.47,290.369,198.975,290.369z M190.847,359.462h-90.43  v-52.836h90.43V359.462z"></path>	<path style="fill:#010002;" d="M153.764,319.835c0-4.487-3.642-8.129-8.129-8.129c-4.487,0-8.129,3.642-8.129,8.129v5.08h16.257  V319.835z"></path>	<path style="fill:#010002;" d="M137.507,346.253c0,4.487,3.642,8.129,8.129,8.129c4.487,0,8.129-3.642,8.129-8.129v-5.08h-16.257  V346.253z"></path>	<path style="fill:#010002;" d="M132.427,341.173h5.08v-16.257h-5.08c-4.487,0-8.129,3.642-8.129,8.129  C124.298,337.531,127.94,341.173,132.427,341.173z"></path>	<path style="fill:#010002;" d="M158.845,341.173c4.487,0,8.129-3.642,8.129-8.129s-3.642-8.129-8.129-8.129h-5.08v16.257H158.845z"></path>	<rect x="137.507" y="324.915" style="fill:#010002;" width="16.257" height="16.257"></rect>	<path style="fill:#010002;" d="M158.422,224.21h-26.418c-4.487,0-8.129,3.642-8.129,8.129c0,4.487,3.642,8.129,8.129,8.129h26.418  c4.487,0,8.129-3.642,8.129-8.129C166.55,227.852,162.909,224.21,158.422,224.21z"></path>	<path style="fill:#010002;" d="M263.752,275.014h26.418c4.487,0,8.129-3.642,8.129-8.129s-3.642-8.129-8.129-8.129h-26.418  c-4.487,0-8.129,3.642-8.129,8.129S259.265,275.014,263.752,275.014z"></path>	<path style="fill:#010002;" d="M263.752,301.432h26.418c4.487,0,8.129-3.642,8.129-8.129s-3.642-8.129-8.129-8.129h-26.418  c-4.487,0-8.129,3.642-8.129,8.129S259.265,301.432,263.752,301.432z"></path>	<path style="fill:#010002;" d="M318.701,187.973h-83.48c-4.487,0-8.129,3.642-8.129,8.129v170.025c0,4.487,3.642,8.129,8.129,8.129  h83.48c4.487,0,8.129-3.642,8.129-8.129V196.102C326.83,191.607,323.196,187.973,318.701,187.973z M310.573,357.991h-67.223V204.23  h67.223V357.991z"></path></g></svg>