<svg xmlns="http://www.w3.org/2000/svg" xmlns:xlink="http://www.w3.org/1999/xlink" height="800px" width="800px" id="Layer_1" viewBox="0 0 512.001 512.001" xml:space="preserve"><g>	<path style="fill:#FCD051;" d="M186.508,126.728l62.513-13.707l62.516-13.704l62.513-13.707l62.511-13.704l31.269-6.856  l-4.59-20.928c-5.015-22.873-27.831-37.482-50.706-32.467L58.107,89.361c-22.877,5.015-37.489,27.831-32.474,50.702l4.59,20.928  l31.257-6.854l62.512-13.707L186.508,126.728z"></path>	<g>		<polygon style="fill:#ED8C18;" points="61.48,154.139 30.224,160.992 39.359,202.67 476.965,106.728 467.828,65.051   "></polygon>		<polygon style="fill:#ED8C18;" points="114.027,202.67 39.359,202.67 39.359,245.336 487.359,245.336 487.359,202.67   "></polygon>	</g>	<path style="fill:#FCD051;" d="M391.35,245.336h-63.996h-63.998h-64h-63.996H71.357H39.359V458.76  c0,23.416,19.158,42.574,42.576,42.574h362.848c23.416,0,42.576-19.158,42.576-42.574V288.003v-42.667H455.35H391.35  L391.35,245.336z M224.426,335.14c0-8.768,7.107-15.876,15.874-15.876c3.286,0,6.338,0.999,8.869,2.708l32.16,18.568l0.815,0.506  l32.217,18.6c7.57,4.351,10.18,14.015,5.832,21.581c-1.488,2.585-3.592,4.592-6.024,5.94l-32.855,18.972l0.015,0.026  l-33.091,19.105c-7.57,4.383-17.26,1.802-21.645-5.768c-1.448-2.505-2.136-5.239-2.133-7.939h-0.033v-38.211L224.426,335.14  L224.426,335.14z"></path>	<path style="fill:#D12D4E;" d="M281.329,340.54l-32.16-18.568c-2.531-1.71-5.583-2.708-8.869-2.708  c-8.768,0-15.874,7.11-15.874,15.876v38.212v38.211h0.033c-0.002,2.7,0.686,5.434,2.133,7.939  c4.385,7.57,14.076,10.152,21.645,5.768l33.091-19.105l-0.015-0.026l32.855-18.972c2.431-1.347,4.536-3.355,6.024-5.94  c4.348-7.567,1.738-17.23-5.832-21.581l-32.217-18.6L281.329,340.54z"></path></g><g>	<path style="fill:#000003;" d="M487.359,192.002H370.026c-0.004,0-0.009,0-0.011,0H178.03c-0.004,0-0.009,0-0.011,0h-40.191  l341.419-74.853c2.763-0.606,5.174-2.285,6.698-4.668c1.528-2.382,2.044-5.273,1.438-8.037l-9.132-41.65  c-0.002-0.009-0.002-0.018-0.004-0.027c-0.002-0.009-0.006-0.018-0.009-0.027l-4.582-20.902C468.343,17.596,446.451,0,421.604,0  c-3.803,0-7.622,0.415-11.355,1.233L55.821,78.941c-28.675,6.287-46.893,34.732-40.607,63.407l13.478,61.478V458.76  c0,29.357,23.885,53.241,53.243,53.241h362.848c29.359,0,53.243-23.884,53.243-53.241V202.67  C498.026,196.778,493.249,192.002,487.359,192.002z M417.104,234.669l21.333-21.332h33.828l-21.333,21.332H417.104z   M353.107,234.669l21.331-21.332h33.825l-21.333,21.332H353.107z M289.109,234.669l21.333-21.332h33.823l-21.331,21.332H289.109z   M225.108,234.669l21.333-21.332h33.828l-21.333,21.332H225.108z M161.112,234.669l21.331-21.332h33.825l-21.333,21.332H161.112z   M97.114,234.669l21.333-21.332h33.823l-21.331,21.332H97.114z M50.027,234.669v-21.332h38.247l-21.333,21.332H50.027z   M59.448,165.505l25.406,16.268l-37.358,8.19l-4.569-20.837L59.448,165.505z M121.964,151.8l25.403,16.269l-33.042,7.243  l-25.403-16.268L121.964,151.8z M246.989,124.389l25.406,16.269l-33.045,7.244l-25.403-16.268L246.989,124.389z M372.017,96.978  l25.406,16.268l-33.042,7.244l-25.406-16.268L372.017,96.978z M434.528,83.273l25.408,16.268l-33.04,7.244L401.49,90.516  L434.528,83.273z M309.503,110.683l25.406,16.268l-33.042,7.244l-25.405-16.269L309.503,110.683z M184.476,138.095l25.403,16.268  l-33.04,7.244l-25.406-16.269L184.476,138.095z M60.39,99.781l354.428-77.708c2.234-0.49,4.517-0.738,6.786-0.738  c14.901,0,28.029,10.544,31.213,25.072l2.304,10.51l-20.843,4.57c-0.002,0-0.004,0.001-0.006,0.002l-62.503,13.702  c-0.004,0.001-0.009,0.002-0.013,0.003l-125.006,27.406c-0.009,0.002-0.019,0.004-0.027,0.006l-124.986,27.403  c-0.019,0.004-0.037,0.009-0.057,0.013l-62.479,13.698c-0.002,0.001-0.004,0.001-0.009,0.002l-20.835,4.568l-2.304-10.508  C32.288,120.594,43.206,103.549,60.39,99.781z M444.783,490.665H81.935c-13.853,0-25.667-8.876-30.067-21.238l42.604,0.003l0,0  c5.892,0,10.667-4.776,10.667-10.667c0-5.891-4.776-10.667-10.665-10.667l-44.447-0.003V256.004h426.665v21.332h-68.657  c-5.892,0-10.667,4.776-10.667,10.667s4.776,10.667,10.667,10.667h68.657v160.088C476.691,476.353,462.376,490.665,444.783,490.665  z"></path>	<path style="fill:#000003;" d="M319.694,350.407l-31.967-18.455c-0.356-0.23-0.717-0.45-1.065-0.651l-31.878-18.404  c-4.313-2.816-9.312-4.302-14.486-4.302c-14.639,0-26.546,11.908-26.546,26.544v76.423c0,0.382,0.021,0.76,0.061,1.132  c0.183,4.262,1.401,8.44,3.546,12.151c4.724,8.158,13.518,13.227,22.954,13.227c4.646,0,9.234-1.235,13.257-3.564l33.091-19.105  c0.242-0.14,0.475-0.287,0.702-0.443l32.071-18.515c4.162-2.331,7.62-5.754,10.001-9.9c3.526-6.131,4.45-13.267,2.606-20.095  C330.2,359.622,325.808,353.921,319.694,350.407z M310.94,375.915c-0.473,0.824-1.128,1.471-1.944,1.924  c-0.052,0.029-0.107,0.059-0.158,0.089l-32.857,18.969c-0.242,0.14-0.477,0.288-0.704,0.443l-32.385,18.699  c-0.802,0.464-1.668,0.699-2.577,0.699c-1.875,0-3.552-0.964-4.488-2.578c-0.465-0.805-0.702-1.679-0.702-2.596  c0-0.293-0.013-0.585-0.035-0.873v-75.55c0-2.872,2.337-5.209,5.211-5.209c1.316,0,2.302,0.478,2.896,0.879  c0.208,0.141,0.421,0.274,0.64,0.399l32.194,18.587c0.079,0.045,0.151,0.095,0.227,0.144c0.181,0.119,0.367,0.234,0.555,0.342  l32.234,18.61c1.607,0.924,2.196,2.35,2.402,3.118C311.654,372.78,311.862,374.307,310.94,375.915z"></path>	<path style="fill:#000003;" d="M377.39,277.34h-0.254c-5.892,0-10.667,4.776-10.667,10.667c0,5.892,4.776,10.667,10.667,10.667  h0.254c5.889,0,10.667-4.776,10.667-10.667C388.058,282.115,383.281,277.34,377.39,277.34z"></path>	<path style="fill:#000003;" d="M125.37,448.101h-0.252c-5.892,0-10.667,4.776-10.667,10.667c0,5.892,4.776,10.667,10.667,10.667  h0.252c5.892,0,10.667-4.776,10.667-10.667C136.037,452.877,131.263,448.101,125.37,448.101z"></path></g></svg>